<svg version="1.0" xmlns="http://www.w3.org/2000/svg" width="392.000000pt" height="600.000000pt" viewBox="0 0 392.000000 600.000000" preserveAspectRatio="xMidYMid meet" style="width: 632.4px; height: auto;"> <g transform="translate(0.000000,600.000000) scale(0.100000,-0.100000)" fill="#000000" stroke="none" class=""> <path d="M1462 5918 c-8 -8 -12 -63 -12 -180 l0 -167 -114 -129 c-62 -70 -139 -162 -171 -203 -68 -88 -135 -149 -310 -280 -265 -197 -373 -314 -411 -444 -37 -129 33 -238 164 -253 24 -3 53 0 65 6 38 18 56 21 62 12 3 -5 73 -54 154 -109 129 -87 151 -106 161 -137 17 -52 8 -452 -11 -483 -9 -14 -170 -100 -459 -246 -245 -122 -454 -233 -465 -245 -19 -21 -20 -38 -22 -584 l-3 -561 86 -60 c92 -63 124 -98 143 -154 8 -24 11 -228 11 -696 l0 -662 67 1 68 1 1 -91 c1 -97 15 -137 58 -164 29 -19 2816 -16 2855 3 48 24 66 62 67 145 2 127 -4 116 64 109 l60 -5 0 662 c0 571 2 669 15 708 18 50 52 90 117 134 24 16 58 40 75 54 l33 25 0 555 c0 511 -2 557 -18 576 -9 12 -215 121 -458 243 -242 122 -452 233 -465 247 -24 25 -24 29 -27 239 -2 129 1 229 7 252 11 39 7 36 306 238 9 6 26 5 48 -3 106 -38 227 21 257 126 14 51 13 64 -10 129 -39 111 -146 237 -301 354 -41 30 -112 84 -159 119 -135 101 -199 160 -260 240 -31 41 -107 131 -169 200 l-111 125 0 163 c0 93 -4 172 -10 183 -10 18 -26 19 -488 19 -359 0 -481 -3 -490 -12z m938 -47 c5 -11 10 -84 10 -164 0 -115 3 -147 15 -157 8 -6 13 -15 12 -19 -2 -7 35 -50 158 -189 22 -25 47 -53 55 -62 9 -9 35 -44 59 -78 24 -34 47 -62 50 -62 3 0 24 -17 46 -38 22 -20 63 -55 90 -77 28 -22 52 -42 55 -45 3 -3 27 -22 55 -41 68 -47 68 -47 180 -140 55 -46 107 -91 115 -102 8 -10 25 -31 36 -45 50 -63 84 -143 84 -199 0 -116 -75 -162 -227 -140 -29 4 -96 -21 -113 -42 -3 -3 -17 -12 -32 -20 -15 -8 -36 -21 -45 -30 -10 -9 -31 -25 -48 -35 -16 -11 -34 -25 -38 -33 -4 -7 -15 -13 -23 -13 -21 0 -72 -55 -81 -88 -10 -34 -10 -448 0 -481 16 -57 67 -88 501 -306 238 -119 438 -225 444 -236 9 -14 12 -158 13 -549 0 -292 -3 -534 -6 -539 -3 -5 -30 -26 -62 -47 -76 -50 -127 -101 -149 -149 -18 -37 -19 -84 -24 -695 l-5 -654 -40 -8 c-59 -12 -75 -37 -75 -120 0 -80 -17 -120 -57 -136 -30 -12 -2805 -23 -2797 -11 2 4 -4 9 -14 11 -24 7 -42 70 -42 146 0 88 -19 106 -117 111 -9 1 -13 152 -15 654 -3 725 1 682 -73 765 -22 23 -63 58 -92 78 -29 19 -57 43 -63 54 -11 21 -13 1039 -1 1079 5 20 67 55 346 197 401 203 386 196 403 200 8 1 30 13 50 26 21 13 50 30 65 38 16 8 42 29 57 47 l29 32 1 249 1 250 -38 39 c-37 38 -71 63 -237 171 -76 50 -84 53 -126 46 -86 -13 -95 -13 -137 6 -95 42 -103 179 -16 296 13 17 23 33 23 37 0 9 148 148 205 192 14 11 31 25 38 30 7 6 35 25 62 44 28 19 58 44 67 55 10 12 18 17 18 13 0 -10 103 76 165 138 22 22 63 69 90 105 28 36 53 67 56 70 18 16 161 183 193 224 l37 48 -2 149 c0 81 2 153 6 158 4 8 151 11 450 11 429 0 445 -1 455 -19z" class=""></path>     </g> </svg>